<mxfile host="www.draw.io" modified="2020-01-17T09:08:05.585Z" agent="Mozilla/5.0 (Macintosh; Intel Mac OS X 10_14_6) AppleWebKit/537.36 (KHTML, like Gecko) Chrome/79.0.3945.117 Safari/537.36" etag="x1wRRFNjsI0sRkKY34O1" version="12.5.5" type="github">
  <diagram id="Zcj8_5NxLZjl2O075Lop" name="Page-1">
    <mxGraphModel dx="1520" dy="710" grid="1" gridSize="10" guides="1" tooltips="1" connect="1" arrows="1" fold="1" page="1" pageScale="1" pageWidth="827" pageHeight="1169" math="0" shadow="0">
      <root>
        <mxCell id="0"/>
        <mxCell id="1" parent="0"/>
        <mxCell id="TcsRFtc-DrYaiQznRBAj-3" value="" style="edgeStyle=orthogonalEdgeStyle;rounded=0;orthogonalLoop=1;jettySize=auto;html=1;" edge="1" parent="1" source="TcsRFtc-DrYaiQznRBAj-1" target="TcsRFtc-DrYaiQznRBAj-2">
          <mxGeometry relative="1" as="geometry"/>
        </mxCell>
        <mxCell id="TcsRFtc-DrYaiQznRBAj-6" value="状态、缓冲事件等" style="text;html=1;align=center;verticalAlign=middle;resizable=0;points=[];labelBackgroundColor=#ffffff;" vertex="1" connectable="0" parent="TcsRFtc-DrYaiQznRBAj-3">
          <mxGeometry x="-0.05" y="2" relative="1" as="geometry">
            <mxPoint as="offset"/>
          </mxGeometry>
        </mxCell>
        <mxCell id="TcsRFtc-DrYaiQznRBAj-1" value="TPPlayer" style="rounded=0;whiteSpace=wrap;html=1;fillColor=#FFFFCC;strokeColor=#36393d;" vertex="1" parent="1">
          <mxGeometry x="150" y="310" width="120" height="60" as="geometry"/>
        </mxCell>
        <mxCell id="TcsRFtc-DrYaiQznRBAj-5" value="" style="edgeStyle=orthogonalEdgeStyle;rounded=0;orthogonalLoop=1;jettySize=auto;html=1;" edge="1" parent="1" source="TcsRFtc-DrYaiQznRBAj-2" target="TcsRFtc-DrYaiQznRBAj-4">
          <mxGeometry relative="1" as="geometry"/>
        </mxCell>
        <mxCell id="TcsRFtc-DrYaiQznRBAj-7" value="状态、缓冲事件等" style="text;html=1;align=center;verticalAlign=middle;resizable=0;points=[];labelBackgroundColor=#ffffff;" vertex="1" connectable="0" parent="TcsRFtc-DrYaiQznRBAj-5">
          <mxGeometry x="-0.0857" relative="1" as="geometry">
            <mxPoint as="offset"/>
          </mxGeometry>
        </mxCell>
        <mxCell id="TcsRFtc-DrYaiQznRBAj-2" value="&lt;pre&gt;&lt;span style=&quot;background-color: rgb(255 , 255 , 255)&quot;&gt;&lt;font style=&quot;font-size: 12px&quot; face=&quot;Helvetica&quot;&gt;TPPluginManager&lt;/font&gt;&lt;/span&gt;&lt;/pre&gt;" style="rounded=0;whiteSpace=wrap;html=1;fillColor=#FFFFCC;strokeColor=#000000;" vertex="1" parent="1">
          <mxGeometry x="400" y="310" width="120" height="60" as="geometry"/>
        </mxCell>
        <mxCell id="TcsRFtc-DrYaiQznRBAj-4" value="&lt;pre&gt;&lt;font style=&quot;font-size: 12px ; background-color: rgb(255 , 255 , 255)&quot; face=&quot;Helvetica&quot;&gt;TPReportManager&lt;/font&gt;&lt;/pre&gt;" style="rounded=0;whiteSpace=wrap;html=1;fillColor=#FFFFCC;" vertex="1" parent="1">
          <mxGeometry x="640" y="310" width="120" height="60" as="geometry"/>
        </mxCell>
      </root>
    </mxGraphModel>
  </diagram>
</mxfile>
